# xmcd
#
# Track frame offsets: 
#        150
#        28103
#        52210
#        74781
#        124919
#        153662
#        175424
#        211584
#        239242
#        265640
#        290435
#
# Disc length: 4204 seconds
#
# Revision: 0
# Processed by: cddbd v1.5.2PL0 Copyright (c) Steve Scherf et al.
# Submitted via: ExactAudioCopyFreeDBPlugin 1.0
#
DISCID=b1106a0b
DTITLE=Layla Zoe - Breaking Free
DYEAR=2016
DGENRE=Blues
TTITLE0=Backstage Queen
TTITLE1=Why Do We Hurt The Ones We Love
TTITLE2=Wild One
TTITLE3=Highway Of Tears 
TTITLE4=Breaking Free
TTITLE5=Work Horse
TTITLE6=Sweet Angel
TTITLE7=Run Away 
TTITLE8=Wild Horses 
TTITLE9=A Good Man 
TTITLE10=He Loves Me 
EXTD=
EXTT0=
EXTT1=
EXTT2=
EXTT3=
EXTT4=
EXTT5=
EXTT6=
EXTT7=
EXTT8=
EXTT9=
EXTT10=
PLAYORDER=
